<svg width="20" height="20" viewBox="0 0 20 20" fill="none" xmlns="http://www.w3.org/2000/svg">
<path d="M16.9593 2.6424H13.7578V1.35241C13.7578 0.606685 13.1511 0 12.4054 0H7.59538C6.84965 0 6.24297 0.606685 6.24297 1.35241V2.6424H3.04148C2.53758 2.6424 2.12769 3.05229 2.12769 3.55619V5.23092C2.12769 5.73482 2.53758 6.14471 3.04148 6.14471H3.57221V18.7206C3.57221 19.4261 4.14614 19.9999 4.85152 19.9999H15.1492C15.8545 19.9999 16.4285 19.4261 16.4285 18.7206V6.14478H16.9593C17.4632 6.14478 17.8731 5.73489 17.8731 5.23099V3.55619C17.8731 3.05236 17.4631 2.6424 16.9593 2.6424ZM7.33952 1.35241C7.33952 1.21374 7.45671 1.09655 7.59538 1.09655H12.4054C12.544 1.09655 12.6612 1.21374 12.6612 1.35241V2.6424H7.33952V1.35241ZM15.3319 18.7207C15.3319 18.8197 15.2482 18.9034 15.1492 18.9034H4.85152C4.75246 18.9034 4.66876 18.8197 4.66876 18.7207V6.14478H15.3319V18.7207ZM16.7765 5.04823H3.22424V3.73895H16.7765V5.04823Z" fill="#333438"/>
<path d="M6.7904 17.3534C7.0932 17.3534 7.33868 17.1079 7.33868 16.8051V8.44134C7.33868 8.13855 7.0932 7.89307 6.7904 7.89307C6.48753 7.89307 6.24213 8.13855 6.24213 8.44134V16.8051C6.24213 17.1079 6.48753 17.3534 6.7904 17.3534Z" fill="#333438"/>
<path d="M10.0001 17.3534C10.3029 17.3534 10.5483 17.1079 10.5483 16.8051V8.44134C10.5483 8.13855 10.3029 7.89307 10.0001 7.89307C9.69719 7.89307 9.45178 8.13855 9.45178 8.44134V16.8051C9.45178 17.1079 9.69726 17.3534 10.0001 17.3534Z" fill="#333438"/>
<path d="M13.2087 17.3534C13.5116 17.3534 13.757 17.1079 13.757 16.8051V8.44134C13.757 8.13855 13.5116 7.89307 13.2087 7.89307C12.9059 7.89307 12.6605 8.13855 12.6605 8.44134V16.8051C12.6605 17.1079 12.9059 17.3534 13.2087 17.3534Z" fill="#333438"/>
</svg>
