<svg width="24" height="24" viewBox="0 0 24 24" fill="none" xmlns="http://www.w3.org/2000/svg">
<g clip-path="url(#clip0)">
<path d="M19.5 24H4.5C3.122 24 2 22.878 2 21.5V2.5C2 1.122 3.122 0 4.5 0H19.5C20.878 0 22 1.122 22 2.5V21.5C22 22.878 20.878 24 19.5 24ZM4.5 1C3.673 1 3 1.673 3 2.5V21.5C3 22.327 3.673 23 4.5 23H19.5C20.327 23 21 22.327 21 21.5V2.5C21 1.673 20.327 1 19.5 1H4.5Z" fill="#007AFF"/>
<path d="M11.5 10C11.224 10 11 9.776 11 9.5V9H6V9.5C6 9.776 5.776 10 5.5 10C5.224 10 5 9.776 5 9.5V8.5C5 8.224 5.224 8 5.5 8H11.5C11.776 8 12 8.224 12 8.5V9.5C12 9.776 11.776 10 11.5 10Z" fill="#007AFF"/>
<path d="M8.5 15C8.224 15 8 14.776 8 14.5V8.5C8 8.224 8.224 8 8.5 8C8.776 8 9.00001 8.224 9.00001 8.5V14.5C9.00001 14.776 8.776 15 8.5 15Z" fill="#007AFF"/>
<path d="M9.5 15H7.5C7.224 15 7 14.776 7 14.5C7 14.224 7.224 14 7.5 14H9.5C9.776 14 10 14.224 10 14.5C10 14.776 9.776 15 9.5 15Z" fill="#007AFF"/>
<path d="M18.5 9.00001H14.5C14.224 9.00001 14 8.776 14 8.5C14 8.224 14.224 8 14.5 8H18.5C18.776 8 19 8.224 19 8.5C19 8.776 18.776 9.00001 18.5 9.00001Z" fill="#007AFF"/>
<path d="M18.5 12H14.5C14.224 12 14 11.776 14 11.5C14 11.224 14.224 11 14.5 11H18.5C18.776 11 19 11.224 19 11.5C19 11.776 18.776 12 18.5 12Z" fill="#007AFF"/>
<path d="M18.5 15H14.5C14.224 15 14 14.776 14 14.5C14 14.224 14.224 14 14.5 14H18.5C18.776 14 19 14.224 19 14.5C19 14.776 18.776 15 18.5 15Z" fill="#007AFF"/>
<path d="M18.5 18H5.5C5.224 18 5 17.776 5 17.5C5 17.224 5.224 17 5.5 17H18.5C18.776 17 19 17.224 19 17.5C19 17.776 18.776 18 18.5 18Z" fill="#007AFF"/>
<path d="M18.5 21H5.5C5.224 21 5 20.776 5 20.5C5 20.224 5.224 20 5.5 20H18.5C18.776 20 19 20.224 19 20.5C19 20.776 18.776 21 18.5 21Z" fill="#007AFF"/>
</g>
<defs>
<clipPath id="clip0">
<rect width="24" height="24" fill="white"/>
</clipPath>
</defs>
</svg>
