<svg width="24" height="24" viewBox="0 0 24 24" fill="none" xmlns="http://www.w3.org/2000/svg">
<path d="M20 2H0V22H24V2H20ZM3.2 21.2H0.8V18.8H3.2V21.2ZM3.2 18H0.8V15.6H3.2V18ZM3.2 14.8H0.8V12.4H3.2V14.8ZM3.2 11.6H0.8V9.2H3.2V11.6ZM3.2 8.4H0.8V6H3.2V8.4ZM3.2 5.2H0.8V2.8H3.2V5.2ZM20 21.2H4V2.8H20V21.2ZM23.2 21.2H20.8V18.8H23.2V21.2ZM23.2 18H20.8V15.6H23.2V18ZM23.2 14.8H20.8V12.4H23.2V14.8ZM23.2 11.6H20.8V9.2H23.2V11.6ZM23.2 8.4H20.8V6H23.2V8.4ZM23.2 5.2H20.8V2.8H23.2V5.2Z" fill="black"/>
<path d="M15.1486 11.8002C15.1132 11.7383 15.0619 11.687 15.0001 11.6516L9.40005 8.4516C9.20875 8.34115 8.9641 8.4067 8.85365 8.598C8.8182 8.6594 8.7997 8.7291 8.80005 8.8V15.2C8.8002 15.3428 8.8764 15.4746 9.00005 15.546C9.1238 15.6175 9.2763 15.6175 9.40005 15.546L15.0001 12.346C15.1918 12.2363 15.2583 11.992 15.1486 11.8002ZM9.60005 14.5104V9.4896L13.9937 12L9.60005 14.5104Z" fill="black"/>
</svg>
