<svg width="79" height="31" viewBox="0 0 79 31" fill="none" xmlns="http://www.w3.org/2000/svg">
<rect width="79" height="31" fill="white"/>
<path d="M54.223 1H54.2211C53.6779 1 40.2732 1 39.6612 1C36.5429 1 34.0064 3.54914 34.0064 6.68305C34.0064 25.6663 33.9763 24.3652 34.0469 24.6283C34.2079 27.6174 36.6785 30 39.6933 30C42.8107 30 45.3472 27.4509 45.3472 24.317V21.8492H48.1642C53.1054 21.8492 55.3773 15.5795 51.5302 12.3973C52.372 12.3973 54.32 12.4144 54.5328 12.3566C57.5071 12.1939 59.8769 9.71098 59.8769 6.68305C59.8769 3.54914 57.3404 1 54.223 1ZM52.2759 16.5134C52.2759 16.5144 52.2759 16.5153 52.2759 16.5162C52.2759 16.5172 52.2759 16.5181 52.2759 16.5191C52.2759 18.8004 50.4362 20.6494 48.1661 20.6494H48.1652C45.576 20.6494 40.5312 20.621 39.5614 20.6494C35.4902 20.7667 35.2003 24.176 35.2003 24.176V8.85653C35.2003 8.85653 35.4902 12.2658 39.5614 12.3831C40.5632 12.4125 42.7815 12.3831 48.1652 12.3831H48.1661C50.4352 12.3831 52.2759 14.2321 52.2759 16.5134Z" fill="#F2B10F"/>
<path d="M2 26V13.9688C2 13.5781 2.13021 13.2526 2.39062 12.9922C2.67708 12.7057 3.01562 12.5495 3.40625 12.5234H4.89062L10.3594 21.7812V12.5234H13.0938V26H10.2422L4.73438 16.7422V26H2ZM20.8672 22.7969H22.8203C22.5339 23.8906 21.987 24.724 21.1797 25.2969C20.3724 25.8958 19.3568 26.1953 18.1328 26.1953C16.6484 26.1953 15.4896 25.7135 14.6562 24.75C13.8229 23.8125 13.4062 22.4714 13.4062 20.7266C13.4062 19.0599 13.8099 17.7578 14.6172 16.8203C15.4505 15.8568 16.6094 15.375 18.0938 15.375C19.6562 15.375 20.8672 15.8438 21.7266 16.7812C22.5599 17.7448 22.9766 19.0859 22.9766 20.8047C22.9766 20.9089 22.9766 21 22.9766 21.0781C22.9766 21.1562 22.9766 21.2083 22.9766 21.2344C22.9766 21.3646 22.9635 21.4557 22.9375 21.5078H16.1797C16.2057 22.3151 16.401 22.9141 16.7656 23.3047C17.1042 23.7214 17.612 23.9297 18.2891 23.9297C18.7318 23.9297 19.1094 23.8385 19.4219 23.6562C19.5 23.6302 19.5651 23.5911 19.6172 23.5391C19.6953 23.4609 19.7734 23.3828 19.8516 23.3047C19.8776 23.2266 19.9688 23.1224 20.125 22.9922C20.3073 22.862 20.5547 22.7969 20.8672 22.7969ZM16.1797 19.75H20.1641C20.112 19.0469 19.9297 18.526 19.6172 18.1875C19.2786 17.8229 18.7969 17.6406 18.1719 17.6406C17.599 17.6406 17.1302 17.8229 16.7656 18.1875C16.401 18.5521 16.2057 19.0729 16.1797 19.75ZM28.0156 26C27.1562 26.0521 26.2188 26.0391 25.2031 25.9609C24.2135 25.8828 23.7188 25.2448 23.7188 24.0469V12.5625H25.125C25.4635 12.5625 25.763 12.6927 26.0234 12.9531C26.2839 13.2135 26.4141 13.526 26.4141 13.8906V15.6484H28.0156V16.1953C28.0156 16.5859 27.8854 16.9115 27.625 17.1719C27.3646 17.4062 27.0521 17.5234 26.6875 17.5234H26.4141V23.3047C26.4141 23.7474 26.6745 23.9688 27.1953 23.9688H28.0156V26ZM28.4844 15.6094H29.8906C30.2552 15.6094 30.5677 15.7396 30.8281 16C31.0885 16.2604 31.2188 16.5729 31.2188 16.9375V26H28.4844V15.6094ZM28.4844 12.5625H29.8906C30.2552 12.5625 30.5677 12.6927 30.8281 12.9531C31.0885 13.2135 31.2188 13.526 31.2188 13.8906V14.7109H28.4844V12.5625Z" fill="#DE3618"/>
<path d="M62.0156 20.7656C61.651 20.9479 61.1432 21.1172 60.4922 21.2734C59.8932 21.4036 59.5938 21.4688 59.5938 21.4688C59.125 21.599 58.7865 21.7682 58.5781 21.9766C58.3958 22.263 58.3047 22.5495 58.3047 22.8359C58.3047 23.2266 58.4219 23.5391 58.6562 23.7734C58.8906 23.9818 59.2292 24.0859 59.6719 24.0859C60.401 24.0859 60.974 23.8776 61.3906 23.4609C61.8073 23.0443 62.0156 22.4714 62.0156 21.7422V20.7656ZM62.6406 25.5703C62.0938 25.8568 61.5078 26.026 60.8828 26.0781C60.2839 26.1562 59.75 26.1953 59.2812 26.1953C58.3438 26.1953 57.5234 25.9479 56.8203 25.4531C56.1172 24.9323 55.7656 24.0859 55.7656 22.9141C55.7656 21.8203 56.0781 21.0391 56.7031 20.5703C57.3542 20.1016 58.1745 19.7891 59.1641 19.6328C59.2943 19.6328 59.4505 19.6198 59.6328 19.5938C59.8151 19.5417 60.0234 19.5026 60.2578 19.4766C61.4036 19.3203 61.9766 18.9818 61.9766 18.4609C61.9766 18.0703 61.7682 17.8229 61.3516 17.7188C60.9609 17.5885 60.5964 17.5234 60.2578 17.5234C59.8932 17.5234 59.5677 17.5755 59.2812 17.6797C58.9948 17.7839 58.7865 17.9792 58.6562 18.2656H56.0391C56.1432 17.4583 56.5078 16.7943 57.1328 16.2734C57.8359 15.6745 58.8385 15.375 60.1406 15.375C61.599 15.375 62.6927 15.6224 63.4219 16.1172C64.1771 16.638 64.5547 17.3672 64.5547 18.3047V21.8594C64.5547 22.901 64.3594 23.7214 63.9688 24.3203C63.6042 24.8932 63.1615 25.3099 62.6406 25.5703ZM74.0078 26H72.6406C72.25 26 71.9245 25.8828 71.6641 25.6484C71.4297 25.388 71.3125 25.0625 71.3125 24.6719V19.3594C71.3125 18.7344 71.1172 18.2786 70.7266 17.9922C70.362 17.7057 69.9453 17.5625 69.4766 17.5625C69.0078 17.5625 68.5911 17.7057 68.2266 17.9922C67.862 18.2786 67.6797 18.7344 67.6797 19.3594V26H64.9453V19.9062C64.9453 18.1354 65.401 16.9505 66.3125 16.3516C67.25 15.7526 68.2786 15.4271 69.3984 15.375C70.5443 15.375 71.599 15.6745 72.5625 16.2734C73.526 16.8724 74.0078 18.0833 74.0078 19.9062V26Z" fill="#DE3618"/>
</svg>
