<svg width="31" height="31" viewBox="0 0 31 31" fill="none" xmlns="http://www.w3.org/2000/svg">
<rect width="31" height="31" fill="white"/>
<path d="M23.3192 1H23.3173C22.7715 1 9.30308 1 8.68817 1C5.55498 1 3.00642 3.54914 3.00642 6.68305C3.00642 25.6663 2.97614 24.3652 3.0471 24.6283C3.20886 27.6174 5.6912 30 8.72033 30C11.8526 30 14.4011 27.4509 14.4011 24.317V21.8492H17.2316C22.1963 21.8492 24.479 15.5795 20.6136 12.3973C21.4593 12.3973 23.4166 12.4144 23.6304 12.3566C26.6189 12.1939 29 9.71098 29 6.68305C29 3.54914 26.4514 1 23.3192 1ZM21.3628 16.5134C21.3628 16.5144 21.3628 16.5153 21.3628 16.5162C21.3628 16.5172 21.3628 16.5181 21.3628 16.5191C21.3628 18.8004 19.5143 20.6494 17.2335 20.6494H17.2326C14.631 20.6494 9.56228 20.621 8.58789 20.6494C4.49733 20.7667 4.20596 24.176 4.20596 24.176V8.85653C4.20596 8.85653 4.49733 12.2658 8.58789 12.3831C9.59445 12.4125 11.8233 12.3831 17.2326 12.3831H17.2335C19.5134 12.3831 21.3628 14.2321 21.3628 16.5134Z" fill="#F2B10F"/>
</svg>
